<svg width="127" height="130" xmlns="http://www.w3.org/2000/svg" style="background-color:rgb(213,232,212)">

  <rect
     ry="5"
     rx="5"
     y="16"
     x="20"
     height="87"
     width="85"
     style="stroke:#000000;stroke-width:10;stroke-dashoffset:3.7500000" />
  <rect
     ry="1"
     rx="3"
     y="9"
     x="48"
     height="6"
     width="29"
     style="stroke:#000000;stroke-width:10;stroke-dashoffset:3.7500000" />
  <g transform="matrix(1.366019,0,0,1.366019,-22.87619,-21.8956)">
    <path
       d="M 27.577165,106.26167 L 43.133514,93.750000 L 51.250000,93.750000 L 43.750000,106.25000 L 27.577165,106.26167 z "
       style="color:#000000;fill:#000000;fill-opacity:1.0000000;fill-rule:nonzero;stroke:none;stroke-width:20.000000;stroke-linecap:square;stroke-linejoin:miter;stroke-miterlimit:4.0000000;stroke-dashoffset:0.0000000;stroke-opacity:1.0000000;marker:none;marker-start:none;marker-mid:none;marker-end:none;visibility:visible;display:inline;overflow:visible" />
    <path
       d="M 97.422835,106.26167 L 81.866486,93.750000 L 73.750000,93.750000 L 81.250000,106.25000 L 97.422835,106.26167 z "
       style="color:#000000;fill:#000000;fill-opacity:1.0000000;fill-rule:nonzero;stroke:none;stroke-width:20.000000;stroke-linecap:square;stroke-linejoin:miter;stroke-miterlimit:4.0000000;stroke-dashoffset:0.0000000;stroke-opacity:1.0000000;marker:none;marker-start:none;marker-mid:none;marker-end:none;visibility:visible;display:inline;overflow:visible" />
  </g>
  <rect

     style="fill:rgb(213,232,212);fill-opacity:1.0000000;fill-rule:evenodd;stroke-width:1.0000000"
     width="72.603348"
     height="33.744144"
     x="25.993023"
     y="22.500000"
     ry="1.3660184"
     rx="1.3660184" />
  <g
     transform="matrix(1.366019,0,0,1.912425,-22.87618,-64.92517)">
    <rect
       style="fill:rgb(213,232,212);fill-opacity:1.0000000;stroke:none;stroke-width:7.5000000;stroke-linecap:butt;stroke-miterlimit:4.0000000;stroke-dashoffset:3.7500000;stroke-opacity:1.0000000"
       id="rect1295"
       width="11.803671"
       height="6.2500000"
       x="36.946331"
       y="72.500000"
       rx="3.0000000"
       ry="2.1428571" />
    <rect
       style="fill:rgb(213,232,212);fill-opacity:1.0000000;stroke:none;stroke-width:7.5000000;stroke-linecap:butt;stroke-miterlimit:4.0000000;stroke-dashoffset:3.7500000;stroke-opacity:1.0000000"
       id="rect2056"
       width="11.803671"
       height="6.2500000"
       x="76.250000"
       y="72.500000"
       rx="3.0000000"
       ry="2.1428571" />
  </g>

</svg>