<?xml version="1.0" standalone="no"?>
<!DOCTYPE svg PUBLIC "-//W3C//DTD SVG 20010904//EN"
 "http://www.w3.org/TR/2001/REC-SVG-20010904/DTD/svg10.dtd">
<svg version="1.0" xmlns="http://www.w3.org/2000/svg"
 width="221.000000pt" height="425.000000pt" viewBox="0 0 221.000000 425.000000"
 preserveAspectRatio="xMidYMid meet">
<metadata>
Created by potrace 1.16, written by Peter Selinger 2001-2019
</metadata>
<g transform="translate(0.000000,425.000000) scale(0.100000,-0.100000)"
fill="#000000" stroke="none">
<polygon style="fill: #ff891b" points="1270.9000244140625 4001.6298828125 1038.3900146484375 3996.35009765625 779.4500122070312 3911.800048828125 610.3499755859375 3795.5400390625 478.239990234375 3642.2900390625 372.54998779296875 3441.47998046875 346.1300048828125 3272.3798828125 346.1300048828125 3055.719970703125 414.8299865722656 2849.6298828125 504.6600036621094 2691.090087890625 541.6500244140625 2648.820068359375 863.635986328125 2893.138916015625 715.85302734375 3146.751953125 726.6079711914062 3335.800048828125 890.4299926757812 3531.320068359375 1054.239990234375 3631.719970703125 1207.489990234375 3652.860107421875 1371.31005859375 3610.580078125 1513.989990234375 3520.75 1640.81005859375 3362.219970703125 1672.52001953125 3193.110107421875 1646.0999755859375 3029.300048828125 1577.4000244140625 2881.330078125 1228.6300048828125 2532.56005859375 1022.5399780273438 2358.179931640625 848.1500244140625 2183.7900390625 716.0399780273438 2014.68994140625 652.6300048828125 1861.43994140625 647.3400268554688 1644.780029296875 716.0399780273438 1480.9599609375 827.010009765625 1369.989990234375 959.1199951171875 1290.719970703125 1223.3399658203125 1253.72998046875 1339.5999755859375 1502.0999755859375 1392.449951171875 1697.6199951171875 1239.199951171875 1660.6300048828125 1064.81005859375 1676.47998046875 1038.3900146484375 1845.5899658203125 1075.3800048828125 1930.1400146484375 1360.739990234375 2183.7900390625 1825.77001953125 2611.830078125 1994.8699951171875 2913.0400390625 2026.5799560546875 3134.989990234375 2000.1600341796875 3378.070068359375 1936.739990234375 3531.320068359375 1836.3399658203125 3689.85009765625 1683.0899658203125 3848.389892578125 1455.8599853515625 3964.639892578125"></polygon>
<polygon style="fill: #ff891b" points="1171.65 1051.24 996.43 1008.85 891.87 873.2 852.3 683.84 928.61 525.58 1058.61 432.32 1211.22 412.54 1355.35 480.36 1457.09 613.19 1479.7 799.72 1409.05 955.15 1298.83 1025.81"></polygon>
<path d="M1105 4034 c-155 -22 -246 -49 -366 -110 -235 -121 -373 -322 -424
-619 -35 -207 22 -427 159 -613 42 -56 49 -62 74 -56 43 11 79 32 166 97 45
34 103 77 130 95 26 18 45 36 43 40 -2 4 -35 59 -73 122 l-69 114 0 86 c0 79
3 92 38 163 46 92 129 179 215 225 211 113 496 6 604 -225 61 -130 48 -298
-32 -421 -60 -92 -110 -142 -370 -372 -264 -233 -357 -326 -443 -441 -176
-236 -196 -451 -63 -652 68 -103 177 -179 300 -211 29 -8 98 -17 154 -21 l100
-7 25 38 c42 63 171 504 153 521 -4 4 -30 -16 -59 -45 -61 -59 -108 -82 -173
-82 -84 0 -144 60 -144 144 0 83 40 126 345 376 389 319 557 526 625 770 123
444 -168 946 -614 1060 -78 20 -240 33 -301 24z m271 -74 c178 -45 344 -157
449 -304 62 -87 131 -236 156 -336 32 -126 24 -281 -21 -403 -65 -178 -203
-347 -470 -575 -74 -64 -176 -154 -225 -201 -50 -47 -122 -114 -162 -148 -81
-72 -113 -126 -113 -196 0 -62 19 -105 63 -144 60 -53 146 -67 233 -37 25 8
48 14 50 11 5 -5 -57 -193 -89 -272 -25 -60 -25 -60 -73 -66 -72 -8 -162 8
-232 42 -78 38 -179 131 -215 197 -60 111 -71 263 -28 386 48 138 177 284 451
511 188 156 361 327 420 415 115 171 145 350 86 518 -52 145 -231 286 -398
312 -140 22 -298 -31 -407 -135 -100 -95 -151 -219 -152 -364 0 -105 28 -170
102 -232 l50 -42 -33 -19 c-18 -11 -71 -48 -118 -83 -95 -70 -146 -99 -160
-90 -27 17 -113 166 -137 238 -25 76 -27 95 -28 247 0 156 2 169 28 244 91
258 308 455 577 525 105 28 288 28 396 1z"/>
<path d="M1085 1077 c-138 -36 -226 -137 -254 -294 -31 -170 80 -333 259 -379
158 -40 311 30 382 174 30 60 33 75 33 157 0 78 -4 98 -29 152 -33 72 -104
144 -171 174 -57 25 -156 32 -220 16z m174 -73 c64 -19 131 -77 163 -142 18
-38 23 -64 23 -132 0 -75 -3 -91 -29 -138 -51 -91 -128 -135 -241 -135 -92 -1
-160 29 -218 93 -51 56 -67 103 -67 192 0 49 6 76 26 116 29 59 107 134 156
149 49 16 128 15 187 -3z"/>
</g>
</svg>
