<?xml version="1.0" standalone="no"?>
<!DOCTYPE svg PUBLIC "-//W3C//DTD SVG 20010904//EN"
 "http://www.w3.org/TR/2001/REC-SVG-20010904/DTD/svg10.dtd">
<svg version="1.0" xmlns="http://www.w3.org/2000/svg"
 width="322.000000pt" height="307.000000pt" viewBox="0 0 322.000000 307.000000"
 preserveAspectRatio="xMidYMid meet">
<metadata>
Created by potrace 1.16, written by Peter Selinger 2001-2019
</metadata>
<g transform="translate(0.000000,307.000000) scale(0.100000,-0.100000)"
fill="#000000" stroke="none">
<defs>
	<mask id="hole">
		<rect width="2000" height="2000" x="1000" fill="white"/>
		<polygon style="fill: black" points="2183.81 1193.82 1921.49 1107.91 1918.42 928.43 1959.84 887.01 2212.96 979.05 2249.77 1026.6 2252.84 1109.45 2205.28 1150.87"></polygon>
	</mask>
</defs>

<polygon style="fill: #00adef" points="482.16 1418.26 489.83 1243.37 831.92 1166.67 845.73 1336.95"></polygon>
<polygon style="fill: #00adef" points="1141.8 1277.12 1151.01 1086.9 1471.62 1019.4 1480.83 1211.16"></polygon>
<polygon style="fill: #00adef" points="483.69 1082.64 492.9 797.31 1482.36 499.7 1473.16 874.01 1051.29 959.92 988.4 910.82 853.39 903.15 787.43 949.18 762.89 1015.14"></polygon>
<polygon style="fill: #00adef" points="1359.64 1553.55 1325.89 1456.91 1385.72 1417.02 1543.72 1670.14 1289.07 1702.36 1275.26 1627.19"></polygon>
<polygon style="fill: #00adef" points="2522.45 1697.75 2646.71 1553.55 2797.05 1789.8 2655.91 1907.92"></polygon>
<polygon style="fill: #00adef" points="2728.01 2049.05 2876.82 1907.92 2979.6 2104.28 2840 2246.94"></polygon>
<polygon style="fill: #00adef" points="1662.23 2344.66 1340.08 1781.66 1593.2 1732.57 1614.67 1773.99 1516.49 1866.03 1583.99 1944.27 1622.34 1962.68 1720.52 1961.14 1820.24 2011.77 1887.74 1974.95 1993.59 1978.02 2030.4 1924.32 2016.6 1855.29 1933.76 1769.39 2079.49 1669.67 2392.44 1626.72 2765.22 2263.35"></polygon>
<polygon style="fill: #00adef" points="1769.61 1229.1 1788.02 537.24 2346.42 787.29 2340.28 1414.72" mask="url(#hole)"></polygon>
<path d="M1553 2538 c-14 -18 -138 -233 -299 -518 -97 -173 -137 -254 -137
-276 l1 -30 -167 -37 c-157 -36 -502 -107 -584 -122 -21 -3 -47 -15 -57 -25
-19 -19 -19 -34 -14 -427 5 -300 10 -413 19 -428 9 -15 53 -32 156 -63 79 -24
373 -115 652 -203 l509 -161 56 23 c32 12 212 97 402 189 190 92 355 171 367
175 12 3 32 18 43 32 19 25 20 39 20 364 l0 339 24 0 c27 0 76 35 76 54 0 7
64 116 141 242 236 382 309 513 309 556 0 40 -66 160 -118 215 l-27 29 -455
28 c-250 15 -529 34 -620 42 -208 17 -285 18 -297 2z m202 -58 c61 -5 274 -16
475 -25 367 -15 659 -33 672 -41 4 -3 4 -12 1 -22 -18 -51 -446 -776 -478
-811 -11 -11 -32 -11 -131 3 -76 11 -124 22 -136 33 -25 23 -22 33 10 34 17 0
6 5 -28 13 -61 13 -119 42 -165 80 l-30 25 42 39 c45 42 59 76 49 124 -10 51
-22 58 -100 58 -48 0 -79 5 -92 15 -28 21 -46 18 -90 -12 -33 -22 -48 -26 -98
-24 -59 2 -86 -9 -86 -36 0 -11 7 -9 27 7 24 18 36 21 80 15 45 -5 58 -3 97
20 l46 27 34 -22 c28 -17 44 -20 84 -14 44 6 51 4 66 -17 34 -49 7 -102 -73
-147 -33 -19 -41 -20 -41 -8 0 8 5 18 10 21 13 8 13 35 0 35 -6 0 -16 -12 -22
-27 -20 -46 -39 -63 -73 -63 -30 0 -33 3 -41 42 -6 30 -15 44 -28 46 -14 3
-17 0 -12 -13 3 -9 9 -28 12 -42 l7 -25 -54 7 c-30 4 -55 11 -57 16 -2 4 -19
18 -38 29 -19 12 -34 25 -34 29 0 14 70 33 84 22 9 -8 18 -7 32 3 11 9 30 12
47 9 20 -4 37 1 57 16 34 24 67 27 89 7 13 -12 24 -12 63 -2 53 13 63 20 53
36 -5 8 -14 7 -31 -4 -29 -20 -63 -20 -88 -1 -29 22 -57 18 -88 -12 -28 -26
-29 -27 -57 -10 -28 16 -29 16 -43 -4 -12 -19 -16 -20 -35 -8 -19 11 -25 11
-41 -4 -10 -9 -22 -14 -25 -10 -4 3 -15 -2 -26 -11 -15 -13 -20 -14 -24 -4 -3
7 -6 1 -6 -14 -1 -19 9 -35 36 -57 56 -46 37 -54 -87 -35 -58 8 -106 17 -109
19 -5 6 275 504 297 529 14 15 26 17 72 12 30 -3 190 -15 355 -26 399 -27 655
-51 655 -63 0 -5 -24 -49 -54 -96 -30 -47 -64 -106 -76 -131 -12 -25 -47 -81
-76 -126 -30 -45 -72 -117 -94 -160 -23 -43 -46 -82 -53 -86 -7 -4 -30 -5 -52
-3 l-40 5 43 -11 c24 -6 50 -8 57 -5 7 2 26 26 41 53 15 26 76 127 134 223
180 296 272 460 266 475 -3 8 -13 15 -23 15 -55 0 -801 42 -987 56 -120 8
-222 12 -226 7 -5 -4 -45 -75 -90 -158 -46 -82 -128 -228 -182 -323 -55 -96
-97 -180 -94 -187 2 -7 29 -16 58 -19 186 -23 278 -40 278 -52 0 -22 -23 -21
-190 2 -192 28 -210 31 -210 43 0 12 378 670 404 703 24 31 29 31 181 18z
m495 -85 c217 -13 427 -26 467 -29 92 -6 99 -10 72 -48 -21 -29 -24 -30 -78
-24 -43 5 -791 55 -1016 68 -36 2 -42 -1 -68 -40 -16 -24 -87 -149 -158 -279
-71 -130 -133 -241 -138 -246 -12 -12 -61 0 -61 14 0 12 299 544 333 593 l20
29 116 -7 c64 -4 294 -18 511 -31z m723 -84 c39 -61 45 -93 26 -135 -18 -40
-37 -39 -75 2 -69 73 -69 74 -38 137 16 30 33 55 39 54 5 0 27 -26 48 -58z
m-43 -217 c0 -41 -63 -144 -88 -144 -5 0 -28 25 -51 55 l-41 55 26 52 c15 29
35 65 46 80 l19 28 45 -51 c27 -31 44 -59 44 -75z m-140 -110 c28 -26 50 -53
50 -62 0 -29 -41 -82 -63 -82 -25 0 -97 71 -97 95 0 20 42 95 53 95 4 0 30
-21 57 -46z m-30 -196 c0 -8 -78 -134 -107 -173 l-23 -30 -17 21 c-10 12 -31
37 -46 57 l-28 36 47 83 c67 119 58 114 120 60 30 -26 54 -50 54 -54z m-756
-77 c119 -77 161 -127 180 -218 7 -30 6 -32 -46 -51 -104 -38 -106 -38 -127
10 -18 42 -51 81 -51 60 0 -5 7 -26 15 -45 8 -20 15 -41 15 -46 0 -16 -47 -43
-88 -51 -20 -5 -62 -17 -92 -29 -30 -12 -63 -18 -74 -15 -17 6 -18 13 -13 78
6 64 5 69 -7 46 -8 -14 -19 -52 -25 -84 -6 -33 -12 -60 -13 -61 -28 -14 -65
-25 -88 -25 -36 0 -45 26 -37 106 9 90 -11 58 -37 -58 -7 -32 -30 -36 -86 -17
-32 12 -32 12 -27 64 7 70 35 122 128 237 43 54 83 106 88 115 9 16 14 14 43
-20 24 -28 38 -37 51 -31 11 4 25 0 36 -10 16 -15 19 -15 24 -1 7 16 33 20 62
9 23 -9 45 -57 55 -122 5 -30 15 -60 21 -66 9 -8 10 -5 6 14 -3 14 -9 67 -13
118 -6 81 -5 95 11 112 10 11 20 20 23 20 2 0 32 -18 66 -39z m-744 -26 c21
-25 -34 -42 -450 -139 -85 -20 -186 -41 -225 -47 -74 -12 -99 -24 -69 -32 11
-3 230 -47 489 -97 259 -50 492 -97 519 -105 27 -8 62 -15 76 -15 41 0 583
181 704 235 77 34 113 45 132 41 17 -5 24 -12 22 -24 -2 -13 -72 -40 -278
-109 -151 -51 -339 -115 -418 -143 l-143 -51 -122 30 c-67 17 -338 75 -602
131 -264 55 -491 105 -504 110 -14 7 -20 15 -15 20 5 4 92 27 194 50 102 23
228 52 280 65 52 12 118 26 147 29 29 4 94 20 145 36 111 35 103 33 118 15z
m175 -16 c41 -6 75 -15 75 -18 0 -4 -12 -18 -26 -32 -15 -13 -48 -58 -75 -99
-38 -59 -49 -71 -55 -57 -4 10 -2 29 5 43 19 43 12 67 -30 110 -63 65 -43 75
106 53z m1144 -60 l41 -51 -22 -40 c-37 -64 -44 -66 -89 -22 -58 56 -60 90
-11 147 24 27 37 21 81 -34z m-1252 -40 l22 -22 -24 -47 -24 -47 24 -19 c17
-13 27 -33 31 -62 l7 -43 -44 7 c-59 8 -322 64 -327 68 -2 2 9 15 24 29 l27
25 -22 27 c-31 40 -26 53 22 65 23 6 57 16 75 21 18 6 45 8 60 4 17 -3 35 0
47 10 25 19 71 12 102 -16z m1126 -493 l-6 -369 -231 -113 c-292 -142 -559
-263 -568 -257 -12 7 -10 811 2 833 10 18 86 47 97 36 3 -2 7 -158 10 -346 5
-248 9 -343 18 -346 11 -5 555 237 582 259 10 7 13 91 15 336 l3 326 35 12
c19 6 38 8 42 5 4 -4 4 -173 1 -376z m-1991 341 c4 -6 5 -38 2 -69 -7 -63 7
-112 34 -123 9 -3 82 -20 161 -36 80 -17 148 -32 152 -35 4 -2 1 -17 -7 -32
-8 -15 -19 -39 -24 -54 -9 -27 -10 -27 -45 -12 -20 8 -84 26 -142 40 -143 33
-137 40 -128 -155 l7 -151 27 -6 c14 -3 235 -70 491 -149 256 -79 477 -146
492 -149 l26 -6 4 178 c4 195 -1 221 -49 241 -15 6 -68 18 -118 25 -49 8 -132
22 -183 33 l-92 18 6 41 c3 24 1 51 -5 62 -8 15 -8 34 1 71 10 43 9 53 -5 68
-8 10 -20 30 -26 46 -8 21 -17 27 -41 27 -31 0 -39 -6 -91 -79 -17 -25 -35
-39 -39 -35 -5 5 -7 42 -3 82 7 85 1 83 153 49 l95 -22 5 -97 c3 -53 10 -101
15 -106 15 -13 321 -84 347 -80 22 3 23 8 26 96 l3 92 29 0 c16 0 41 -5 55
-12 l27 -12 -4 -417 c-1 -230 -6 -420 -9 -424 -4 -3 -213 61 -465 144 -253 82
-529 172 -614 198 l-155 49 -6 134 c-4 74 -7 238 -8 364 l-1 229 47 -7 c26 -3
51 -12 55 -19z m188 -51 c63 -13 128 -29 144 -35 28 -11 29 -13 23 -72 -3 -34
-9 -65 -14 -69 -7 -7 -243 38 -285 55 -14 6 -18 19 -18 65 0 32 -3 66 -6 75
-5 13 -2 15 17 11 13 -3 76 -17 139 -30z m1673 -158 c4 -290 0 -399 -15 -414
-11 -11 -116 -61 -446 -210 -29 -13 -57 -24 -62 -24 -5 0 -9 140 -9 324 l-1
324 72 26 c256 91 416 145 436 145 22 1 22 0 25 -171z m-988 13 l120 -28 3
-44 c2 -24 1 -59 -3 -77 -7 -39 8 -39 -185 1 l-105 22 -3 78 -3 77 28 0 c15 0
82 -13 148 -29z m-409 -108 c17 -18 38 -33 47 -33 8 0 18 -12 22 -27 7 -28 7
-28 16 -5 10 25 22 28 38 8 18 -21 3 -63 -39 -107 -34 -36 -41 -39 -93 -39
-79 0 -108 26 -115 103 -5 63 9 110 41 132 24 17 44 10 83 -32z m-284 -79
c103 -25 107 -27 118 -58 20 -61 84 -106 150 -106 47 0 73 11 112 48 l27 25
183 -43 c101 -23 191 -47 201 -52 15 -8 17 -26 17 -168 l0 -158 -72 20 c-40
11 -192 58 -338 104 -146 46 -310 95 -365 109 -159 41 -162 42 -169 77 -3 17
-6 75 -6 129 0 116 -12 110 142 73z"/>
<path d="M2035 1156 c-95 -31 -129 -46 -126 -57 6 -19 5 -55 -4 -116 -7 -49
-6 -54 23 -82 l30 -30 128 45 c71 25 137 53 147 63 12 12 21 39 24 79 5 54 4
61 -16 72 -13 6 -27 25 -33 41 -6 17 -17 29 -26 28 -10 0 -75 -20 -147 -43z
m155 13 c0 -5 -14 -15 -30 -21 -24 -8 -28 -13 -19 -24 14 -17 3 -35 -16 -27
-23 8 -18 -13 7 -29 14 -9 19 -19 13 -27 -9 -16 -77 -46 -122 -56 -48 -10 -43
18 8 50 30 20 39 32 37 48 -4 28 -45 34 -87 13 -37 -20 -51 -20 -51 -2 0 9 38
27 108 49 113 37 152 44 152 26z m44 -51 c17 -23 21 -64 10 -93 -9 -22 -102
-67 -195 -95 -63 -18 -80 -20 -99 -10 -20 11 -22 17 -16 56 7 51 22 84 37 84
8 0 9 -16 4 -46 l-7 -47 66 5 c115 10 202 69 178 122 -6 13 -18 23 -28 23 -9
-1 -19 4 -21 11 -8 23 54 14 71 -10z"/>
</g>

</svg>
