<?xml version="1.0" standalone="no"?>
<!DOCTYPE svg PUBLIC "-//W3C//DTD SVG 20010904//EN"
 "http://www.w3.org/TR/2001/REC-SVG-20010904/DTD/svg10.dtd">
<svg version="1.0" xmlns="http://www.w3.org/2000/svg"
 width="235.000000pt" height="293.000000pt" viewBox="0 0 235.000000 293.000000"
 preserveAspectRatio="xMidYMid meet">
<metadata>
Created by potrace 1.16, written by Peter Selinger 2001-2019
</metadata>
<g transform="translate(0.000000,293.000000) scale(0.100000,-0.100000)"
fill="#000000" stroke="none">
<polygon style="stroke: rgb(0, 0, 0); fill: rgb(255, 242, 0);" points="1087.48 2467.32 763.24 2358.03 617.51 2099.36 610.23 1920.85 916.25 933.56 919.89 813.33 1349.79 831.55 1641.24 1942.71 1644.88 2194.08 1528.3 2368.96 1338.86 2470.96"></polygon>
<path d="M997 2524 c-190 -41 -345 -163 -408 -322 -20 -49 -23 -75 -23 -182
l0 -125 66 -200 c37 -110 71 -236 78 -280 13 -97 25 -133 49 -160 25 -26 62
-171 91 -350 12 -77 24 -146 26 -154 4 -11 19 -12 71 -8 72 5 67 -6 -7 -18
-62 -10 -82 -22 -78 -48 3 -20 10 -22 78 -27 82 -5 81 -13 -7 -36 -59 -15 -83
-29 -83 -47 0 -6 30 -7 85 -3 87 7 109 -2 58 -23 -16 -6 -46 -14 -68 -19 -34
-7 -40 -12 -40 -32 0 -24 2 -25 68 -23 37 0 67 -3 67 -7 0 -5 -24 -18 -52 -28
-45 -17 -53 -24 -50 -44 4 -39 47 -68 99 -68 40 0 50 -4 77 -36 27 -31 38 -37
75 -38 35 -1 47 4 60 23 36 52 60 71 92 71 40 0 109 65 109 103 0 41 -41 50
-190 45 -72 -3 -128 -3 -125 0 2 3 71 15 152 28 174 28 173 27 173 55 0 21 -2
22 -97 15 -54 -3 -123 -9 -153 -12 -51 -5 -53 -4 -30 9 14 8 72 22 129 31 105
16 131 27 131 52 0 25 -49 26 -139 4 -90 -22 -142 -24 -148 -4 -2 6 37 18 98
28 112 20 189 43 189 57 0 23 -50 32 -117 21 -61 -10 -84 -9 -72 2 3 3 35 10
73 16 83 13 106 24 106 51 0 12 17 64 39 117 21 54 44 131 51 172 7 41 25 104
40 140 15 36 30 91 34 123 3 32 19 104 35 161 59 208 75 310 75 471 1 172 -12
227 -71 308 -39 53 -135 126 -206 156 -113 49 -279 63 -410 35z m409 -110 c43
-21 67 -41 89 -75 17 -25 42 -60 56 -77 61 -71 64 -244 9 -457 -66 -252 -81
-318 -135 -589 -31 -154 -63 -292 -71 -308 -16 -30 -49 -48 -89 -48 -21 0 -23
4 -23 53 -1 222 -11 448 -21 477 -19 61 -13 93 55 261 136 340 173 488 144
571 -10 27 -25 48 -43 58 -28 15 -29 14 -63 -24 -34 -40 -116 -194 -170 -318
-16 -38 -32 -68 -36 -68 -4 0 -10 17 -13 38 -18 122 -39 212 -57 254 -38 88
-85 88 -126 0 -24 -52 -27 -68 -25 -167 1 -160 47 -362 120 -534 l36 -84 -9
-146 c-10 -175 -8 -266 7 -304 7 -15 10 -30 7 -32 -2 -3 -27 -2 -54 1 l-50 6
-28 121 c-15 66 -43 160 -62 209 -19 49 -43 135 -53 191 -10 56 -38 152 -61
212 -70 183 -91 256 -97 342 -5 69 -3 87 14 120 11 21 25 59 32 85 42 153 287
271 547 265 100 -3 117 -6 170 -33z m-70 -401 c-9 -42 -32 -117 -52 -167 -39
-97 -123 -270 -129 -265 -1 2 -10 25 -19 51 -25 74 -8 136 86 322 44 88 90
173 102 189 l21 29 3 -42 c2 -23 -4 -75 -12 -117z m-338 105 c17 -57 21 -79
37 -243 19 -200 31 -268 56 -324 19 -43 15 -60 -14 -61 -35 -1 -147 492 -133
583 7 45 22 77 36 77 4 0 13 -15 18 -32z m163 -808 c4 -36 7 -110 8 -165 1
-93 9 -166 26 -257 9 -46 -4 -49 -66 -17 -32 16 -39 24 -32 37 4 9 7 107 5
218 -3 210 4 258 36 252 13 -2 18 -17 23 -68z m139 -894 c0 -17 -22 -26 -60
-26 -19 0 -35 -9 -48 -25 -23 -29 -41 -31 -85 -8 -17 9 -43 19 -57 23 -19 5
-8 10 50 19 41 7 91 17 110 21 57 13 90 12 90 -4z"/>
<path d="M1930 2469 c-64 -43 -122 -108 -118 -133 5 -34 44 -22 138 42 74 51
85 62 85 88 0 25 -4 29 -30 31 -20 2 -45 -7 -75 -28z"/>
<path d="M302 2393 c3 -19 115 -79 167 -89 26 -6 31 -3 31 13 0 42 -92 93
-167 93 -27 0 -34 -4 -31 -17z"/>
<path d="M181 2046 c-17 -20 2 -54 32 -60 83 -16 173 -24 181 -16 16 15 -22
48 -81 70 -63 23 -116 26 -132 6z"/>
<path d="M2035 2013 c-110 -23 -175 -62 -175 -104 0 -25 46 -24 169 4 106 25
130 44 96 76 -22 20 -59 30 -90 24z"/>
<path d="M262 1635 c-61 -17 -102 -42 -102 -61 0 -24 71 -38 139 -26 61 11
131 38 131 51 0 43 -81 60 -168 36z"/>
<path d="M1843 1593 c-18 -48 48 -75 187 -77 98 -1 105 0 105 18 0 36 -53 55
-175 64 -88 6 -113 5 -117 -5z"/>
<path d="M475 1264 c-16 -8 -39 -24 -50 -34 -11 -10 -46 -36 -77 -57 -66 -44
-114 -101 -97 -117 12 -13 86 26 217 112 91 59 105 78 77 98 -24 18 -33 17
-70 -2z"/>
<path d="M1814 1179 c-19 -31 30 -71 150 -127 84 -39 106 -41 106 -8 0 29 -56
81 -116 108 -54 23 -133 38 -140 27z"/>
<path d="M555 928 c-45 -45 -89 -98 -99 -116 l-17 -32 34 0 c38 0 72 22 164
111 64 61 65 64 52 89 -26 45 -46 38 -134 -52z"/>
<path d="M1655 900 c-4 -6 2 -24 12 -39 29 -47 171 -191 187 -191 16 0 46 26
46 40 0 20 -96 119 -174 178 -31 24 -61 28 -71 12z"/>
</g>
</svg>
