<?xml version="1.0" standalone="no"?>
<!DOCTYPE svg PUBLIC "-//W3C//DTD SVG 20010904//EN"
 "http://www.w3.org/TR/2001/REC-SVG-20010904/DTD/svg10.dtd">
<svg version="1.0" xmlns="http://www.w3.org/2000/svg"
 width="600.000000pt" height="910.000000pt" viewBox="0 0 600.000000 910.000000"
 preserveAspectRatio="xMidYMid meet">
<metadata>
Created by potrace 1.16, written by Peter Selinger 2001-2019
</metadata>
<g transform="translate(0.000000,910.000000) scale(0.100000,-0.100000)"
fill="#000000" stroke="none">
<polygon style="fill: #ff1b34" points="1476.59 4551.41 684.55 4359.06 718.5 3442.56 2483.62 3272.83 2800.43 3023.9 3219.09 3012.59 3434.07 3238.89 5153.93 3465.19 5119.99 4336.43 4418.46 4574.04 4769.23 6282.59 4633.45 6508.89 3716.94 6961.49 2732.55 7029.38 1883.93 6814.39 1216.35 6429.69 1216.35 5716.85"></polygon>
<circle style="fill: #f8bcbc" cx="2958.84" cy="-4211.97" r="770.16" transform="matrix(1, 0, 0, -1, 0, 0)"></circle>
<polygon style="fill: #f8bcbc" points="1227.67 3385.98 1227.67 2401.59 1386.07 2197.92 1736.84 2220.55 1782.09 3340.72"></polygon>
<polygon style="fill: #f8bcbc" points="4135.59 3329.41 4146.91 2412.9 4327.94 2254.49 4701.34 2345.01 4667.39 3397.3"></polygon>
<polygon style="fill: #f8bcbc" points="2087.6 6259.96 2110.23 5467.92 3841.4 5513.18 3784.83 6282.59"></polygon>
<path d="M2809 7121 c-25 -5 -77 -18 -115 -29 -47 -13 -87 -18 -122 -14 -29 2
-78 0 -110 -7 -31 -6 -76 -13 -100 -16 -24 -3 -62 -13 -85 -24 -23 -10 -76
-24 -117 -31 -41 -6 -95 -18 -120 -26 -25 -8 -64 -19 -87 -24 -24 -6 -43 -15
-43 -20 0 -5 -18 -15 -40 -21 -22 -7 -48 -20 -59 -31 -11 -10 -23 -18 -27 -18
-7 0 -67 -27 -174 -80 -167 -82 -311 -182 -369 -258 -20 -25 -44 -54 -54 -64
-24 -25 -66 -120 -83 -188 -18 -73 -7 -526 14 -567 5 -10 12 -38 16 -62 4 -24
15 -61 26 -84 11 -22 22 -56 25 -76 11 -65 75 -365 89 -416 8 -27 17 -75 21
-105 10 -85 35 -180 61 -232 27 -53 30 -94 10 -120 -19 -25 -109 -45 -279 -63
-81 -8 -165 -22 -185 -31 -20 -9 -63 -20 -95 -24 -67 -10 -144 -55 -183 -106
-24 -31 -26 -42 -32 -191 -7 -190 -6 -535 2 -654 6 -82 25 -158 47 -185 14
-17 104 -45 142 -43 78 2 118 1 206 -8 117 -13 127 -22 130 -119 1 -37 4 -71
7 -76 6 -9 5 -144 0 -218 -10 -128 6 -484 24 -530 16 -42 89 -139 131 -174 48
-41 118 -56 256 -56 106 0 129 3 170 23 81 39 127 98 137 178 3 19 9 54 15 79
13 61 13 313 0 555 -8 163 -8 207 3 240 l14 40 77 -2 c42 -2 136 -12 209 -24
73 -12 170 -25 215 -29 77 -6 99 -15 133 -50 43 -45 326 -200 398 -218 66 -17
206 -6 299 23 97 30 95 28 239 182 49 51 84 61 239 66 78 3 151 12 209 26 49
12 100 20 112 17 24 -6 24 -9 25 -129 0 -67 2 -131 5 -142 2 -11 6 -60 8 -110
3 -49 9 -108 15 -130 6 -22 8 -67 5 -100 -4 -41 1 -91 15 -156 42 -202 110
-257 328 -267 98 -4 124 -1 194 19 96 28 125 55 134 127 3 26 11 67 18 92 14
53 15 462 1 580 -5 41 -7 119 -4 172 8 140 1 136 225 146 198 9 237 20 256 70
6 15 7 44 3 67 -4 22 -8 186 -9 365 -2 265 -6 338 -19 394 -25 103 -85 175
-178 217 -16 7 -28 16 -28 20 0 5 -17 11 -37 15 -21 4 -61 17 -89 29 -68 30
-146 51 -212 59 -30 3 -78 16 -108 30 -48 22 -54 28 -54 55 0 16 11 60 24 98
14 37 30 97 36 133 6 36 31 139 54 230 44 167 56 223 75 340 5 36 22 115 36
175 15 61 39 178 55 260 16 83 38 191 49 241 l20 91 -35 102 c-19 56 -45 118
-58 139 -45 69 -265 254 -341 285 -16 6 -61 29 -100 50 -150 80 -254 126 -355
155 -58 17 -159 50 -225 72 -66 22 -145 43 -175 46 -30 3 -68 9 -85 14 -28 8
-47 11 -160 25 -78 10 -461 14 -506 6z m346 -185 c127 -8 243 -15 258 -15 32
-2 140 -27 277 -65 148 -41 160 -46 245 -86 44 -20 132 -59 195 -86 189 -79
386 -186 451 -245 57 -52 63 -71 62 -208 -1 -214 -48 -499 -120 -719 -13 -40
-28 -108 -35 -150 -6 -42 -19 -93 -28 -112 -17 -34 -43 -141 -55 -230 -8 -54
-50 -227 -70 -290 -19 -55 -10 -156 16 -199 19 -32 78 -54 224 -86 44 -9 96
-27 115 -40 21 -14 55 -25 85 -27 28 -3 87 -17 132 -32 92 -31 112 -50 133
-126 13 -45 23 -273 24 -512 1 -123 0 -128 -24 -152 -21 -21 -40 -27 -120 -36
-52 -5 -115 -14 -140 -20 -25 -5 -81 -14 -125 -20 -175 -21 -239 -30 -273 -39
-21 -5 -116 -13 -212 -16 -104 -4 -232 -16 -315 -30 -77 -12 -164 -23 -194
-24 -29 -1 -72 -6 -95 -11 -22 -5 -64 -10 -91 -10 -63 0 -85 -15 -125 -87 -34
-61 -114 -143 -140 -143 -16 0 -95 -24 -145 -45 -21 -8 -55 -9 -117 -4 -121
11 -190 45 -298 145 -47 44 -96 87 -110 95 -27 17 -157 52 -168 45 -4 -2 -50
2 -102 10 -52 7 -138 13 -190 14 -85 0 -203 12 -400 40 -57 8 -175 22 -295 34
-22 3 -62 9 -90 15 -27 6 -146 13 -263 14 -239 4 -245 6 -256 79 -11 72 -8
482 4 533 7 28 15 81 18 119 5 46 12 72 22 77 101 55 172 79 258 89 55 6 110
19 132 30 29 15 58 20 112 19 40 0 98 6 128 13 52 13 56 16 72 58 35 92 19
264 -43 455 -16 50 -36 130 -44 178 -9 48 -20 100 -26 114 -6 15 -15 72 -20
128 -5 55 -16 138 -24 185 -9 47 -22 130 -29 185 -8 55 -24 150 -37 210 -12
61 -24 149 -26 198 -4 85 -3 90 34 164 39 79 95 143 148 170 17 9 41 24 54 34
13 11 30 19 37 19 7 0 41 19 76 43 91 62 192 109 363 167 83 28 188 66 235 84
129 51 320 82 690 115 8 0 119 -5 245 -13z m1373 -3654 c12 -8 46 -191 56
-307 25 -271 28 -327 23 -384 -9 -100 -27 -169 -51 -197 -20 -24 -29 -26 -124
-29 l-102 -3 -26 31 c-52 61 -63 102 -65 240 0 70 -6 146 -11 170 -6 23 -10
114 -9 201 2 178 17 237 65 256 52 19 223 35 244 22z m-2961 -21 c45 -3 85
-10 89 -14 5 -4 11 -36 15 -70 4 -34 13 -90 19 -125 6 -34 12 -172 13 -305 3
-205 0 -254 -15 -322 -33 -146 -49 -165 -136 -165 -66 0 -148 37 -191 85 -38
44 -46 97 -32 211 9 67 9 103 0 144 -12 57 -21 218 -22 377 0 104 20 173 56
191 13 7 43 9 72 6 28 -3 87 -9 132 -13z"/>
<path d="M2498 6370 c-583 -6 -538 4 -519 -112 12 -70 17 -295 12 -588 -3
-200 3 -287 24 -310 15 -17 29 -18 148 -15 242 7 649 17 897 21 135 2 344 6
465 9 121 2 251 4 288 5 l68 0 -7 333 c-6 309 -11 537 -13 598 -2 62 15 59
-446 62 -231 1 -644 0 -917 -3z m983 -184 c135 -1 181 -5 193 -16 14 -11 17
-29 15 -99 -1 -47 -1 -173 1 -280 3 -182 2 -195 -16 -208 -15 -11 -52 -14
-169 -13 -82 2 -287 -3 -455 -9 -211 -8 -388 -9 -574 -3 l-270 10 -21 25 c-18
20 -23 42 -28 118 -3 52 -3 109 1 127 4 19 3 89 -1 157 -7 105 -6 128 8 154 8
17 21 31 28 32 6 1 243 2 524 3 282 1 516 6 520 10 4 3 21 4 38 0 16 -4 109
-8 206 -8z"/>
<path d="M2870 5064 c-185 -27 -265 -56 -408 -147 -91 -59 -210 -177 -238
-238 -44 -95 -55 -121 -72 -174 -33 -101 -42 -155 -47 -271 -4 -86 -1 -122 11
-155 8 -24 19 -64 24 -89 10 -53 109 -241 160 -304 37 -45 161 -152 220 -188
19 -11 89 -41 155 -65 141 -51 222 -61 363 -43 159 19 247 53 404 153 58 37
177 163 223 237 27 42 81 171 97 230 28 103 25 348 -7 450 -12 41 -49 118
-108 225 -57 103 -287 284 -422 333 -106 38 -266 58 -355 46z m178 -194 c77
-13 205 -72 294 -137 185 -133 300 -439 242 -642 -9 -31 -20 -63 -25 -71 -5
-8 -21 -40 -35 -70 -13 -30 -30 -66 -37 -80 -20 -40 -154 -167 -210 -198 -109
-61 -287 -101 -395 -87 -238 30 -462 208 -547 437 -15 40 -34 89 -42 110 -8
20 -12 41 -9 46 4 6 9 48 12 94 7 106 17 145 65 239 71 142 193 254 345 318
118 50 215 61 342 41z"/>
<path d="M2872 4429 c-45 -11 -116 -73 -133 -117 -19 -49 -10 -118 24 -184 26
-51 42 -68 82 -91 44 -24 58 -27 115 -24 36 2 80 12 98 21 61 31 113 151 98
227 -10 54 -61 126 -104 148 -49 25 -124 33 -180 20z m124 -88 c23 -10 49 -29
58 -42 32 -46 13 -137 -35 -167 -11 -7 -46 -15 -79 -19 -56 -5 -60 -4 -89 25
-27 27 -31 37 -31 85 0 45 5 61 27 87 44 53 83 61 149 31z"/>
</g>
</svg>
