<?xml version="1.0" standalone="no"?>
<!DOCTYPE svg PUBLIC "-//W3C//DTD SVG 20010904//EN"
 "http://www.w3.org/TR/2001/REC-SVG-20010904/DTD/svg10.dtd">
<svg version="1.0" xmlns="http://www.w3.org/2000/svg"
 width="342.000000pt" height="334.000000pt" viewBox="0 0 342.000000 334.000000" transform="scale(-1,1)"
 preserveAspectRatio="xMidYMid meet">
<metadata>
Created by potrace 1.16, written by Peter Selinger 2001-2019
</metadata>
<g transform="translate(0.000000,334.000000) scale(0.100000,-0.100000)"
fill="#000000" stroke="none">
<polygon style="fill: #0051a8" points="595.95 3016.07 1522.05 3244.48 1912.43 3248.64 1679.86 2750.28"></polygon>
<polygon style="fill: #0051a8" points="471.36 1749.42 350.92 1653.91 359.23 1213.7 218.03 1097.41 105.9 744.41 93.44 88.25 1962.26 75.79 2140.84 154.7 2464.77 511.85 1970.57 1213.7 1613.42 947.91 1247.96 1222 1243.8 1018.51 1069.38 1035.12"></polygon>
<path d="M1588 3305 c-4 -4 -122 -17 -153 -16 -10 0 -25 -5 -32 -11 -8 -6 -16
-8 -19 -5 -3 3 -32 -1 -65 -9 -33 -8 -63 -13 -67 -12 -4 0 -14 -1 -22 -4 -17
-7 -125 -30 -155 -34 -11 -1 -20 -3 -20 -4 0 -1 -7 -3 -15 -5 -8 -1 -35 -8
-60 -15 -25 -7 -54 -14 -65 -16 -11 -1 -21 -3 -22 -4 -2 -2 -6 -3 -10 -4 -5
-2 -28 -8 -53 -15 -25 -7 -49 -14 -55 -16 -5 -1 -17 -4 -25 -7 -30 -11 -95
-29 -111 -32 -9 -1 -29 -16 -44 -34 -22 -27 -34 -32 -69 -32 -34 0 -48 -6 -72
-31 -24 -25 -29 -39 -30 -82 -2 -75 -10 -117 -27 -159 -16 -38 -85 -145 -110
-170 -16 -16 -59 -108 -50 -108 3 0 0 -7 -7 -15 -6 -8 -9 -19 -5 -25 3 -5 3
-15 0 -20 -9 -14 -8 -261 1 -283 3 -10 4 -20 1 -24 -20 -20 74 -125 146 -163
l42 -22 -2 -75 -2 -75 -50 -43 c-27 -23 -48 -45 -45 -48 3 -3 -1 -16 -10 -29
-12 -18 -15 -58 -16 -185 -1 -89 0 -166 2 -170 3 -4 6 -25 7 -46 1 -28 -3 -39
-16 -44 -25 -8 -93 -74 -93 -90 0 -7 -4 -13 -8 -13 -10 0 -72 -123 -78 -154
-2 -12 -7 -34 -11 -51 -4 -16 -7 -33 -7 -37 -1 -3 -4 -9 -8 -13 -4 -4 -4 -13
-2 -20 3 -7 1 -16 -5 -19 -6 -4 -8 -13 -5 -21 3 -8 2 -20 -2 -26 -4 -7 -8 -24
-9 -38 -1 -14 -6 -60 -10 -101 -5 -41 -8 -88 -8 -105 0 -16 -4 -82 -9 -145
-12 -153 2 -303 32 -335 l22 -23 576 -2 c1261 -6 1208 -6 1316 16 38 7 72 12
74 9 12 -11 92 44 147 101 34 35 64 64 67 64 9 0 88 81 88 90 0 4 7 14 17 21
9 8 38 40 65 72 46 55 48 61 48 118 0 50 -5 68 -28 102 -30 44 -31 68 -4 95
10 10 39 45 66 80 38 51 47 69 44 93 -6 38 11 52 64 51 23 -1 53 5 67 13 30
15 88 76 117 120 18 27 53 125 59 165 2 12 17 15 75 15 l73 0 13 -40 c18 -53
41 -94 72 -127 22 -24 34 -28 77 -28 46 0 55 4 78 31 14 18 29 50 32 73 7 46
1 350 -7 381 -3 13 5 31 23 53 25 28 29 41 29 90 0 31 -7 70 -15 86 -10 18
-15 56 -15 105 l0 77 -44 43 c-39 39 -43 46 -36 73 7 23 75 117 101 138 12 10
31 53 55 123 32 94 33 202 3 241 -18 23 -27 26 -83 26 l-63 0 -49 -55 c-165
-185 -165 -185 -374 -365 -314 -270 -414 -373 -464 -476 -40 -81 -85 -202 -91
-247 -2 -15 -10 -40 -17 -55 -11 -22 -21 -28 -57 -30 -31 -2 -55 -12 -79 -32
-20 -16 -39 -27 -44 -24 -5 3 -7 0 -6 -6 5 -21 -46 -49 -94 -53 -41 -4 -59
-14 -140 -79 -51 -41 -113 -94 -138 -117 -25 -22 -53 -41 -63 -41 -22 0 -157
118 -157 138 0 28 29 44 78 41 56 -3 92 14 145 69 35 36 38 43 35 88 -4 64 20
71 66 18 31 -36 33 -37 111 -39 76 -2 80 -1 116 32 67 61 96 157 68 230 -5 15
-27 45 -47 66 -43 44 -87 49 -155 16 -44 -21 -46 -21 -137 6 -3 1 -18 5 -33
10 -24 6 -28 12 -25 39 2 20 15 41 37 61 19 16 40 45 48 64 8 18 25 50 38 71
20 32 31 38 80 48 32 7 61 9 66 6 5 -3 25 10 44 29 35 35 35 36 35 121 0 133
-23 168 -130 198 -59 16 -88 48 -81 91 0 4 -3 7 -7 7 -5 0 -9 16 -10 36 -1 30
7 46 45 91 37 43 47 63 48 91 1 44 -37 92 -72 92 -13 0 -23 5 -23 11 0 5 -4 8
-9 5 -4 -3 -17 1 -27 8 -17 13 -17 18 -6 50 7 19 53 111 102 203 75 141 90
175 90 214 0 35 -5 51 -23 67 -23 21 -32 22 -179 21 -86 0 -158 -2 -160 -4z
m261 -107 c-29 -56 -203 -383 -206 -387 -11 -14 -775 131 -925 176 l-53 16 85
24 c192 54 484 124 616 148 196 36 252 42 382 44 l113 1 -12 -22z m-1244 -282
c148 -73 291 -107 517 -125 70 -5 140 -16 155 -23 25 -13 28 -18 26 -61 l-3
-47 53 40 c51 39 70 46 101 34 22 -8 20 -23 -9 -66 -14 -20 -25 -41 -25 -45 0
-5 17 -10 38 -11 60 -4 89 -12 167 -47 l72 -33 13 -79 c6 -43 24 -103 38 -133
28 -58 39 -65 139 -90 37 -9 43 -15 48 -43 4 -18 5 -52 3 -76 l-3 -44 -82 -17
c-46 -9 -87 -20 -92 -25 -5 -6 -28 -44 -52 -85 -23 -41 -43 -77 -45 -78 -1 -2
-23 17 -48 43 -24 26 -49 44 -55 40 -18 -11 -12 -53 15 -106 34 -64 30 -130
-11 -190 -29 -41 -194 -159 -224 -159 -9 0 -35 -9 -57 -19 -37 -17 -42 -23
-48 -62 -11 -71 -13 -73 -95 -59 -94 16 -129 40 -168 119 -34 70 -40 75 -97
86 -56 9 -143 95 -151 148 -9 52 6 69 56 61 74 -12 129 35 129 111 0 32 -19
32 -68 1 -38 -23 -38 -23 -74 -5 -77 40 -138 194 -138 352 0 95 10 125 54 166
26 25 26 25 79 8 30 -9 68 -17 86 -17 28 0 32 3 29 23 -2 15 -19 30 -58 49
-58 29 -99 35 -130 18 -31 -17 -150 -171 -150 -195 0 -12 11 -49 25 -83 16
-40 25 -81 25 -116 0 -36 10 -82 29 -133 16 -44 34 -115 41 -159 22 -149 20
-146 168 -299 83 -86 155 -151 185 -167 28 -16 74 -46 102 -67 43 -32 54 -48
64 -85 14 -57 14 -96 0 -96 -6 0 -38 14 -71 32 -99 53 -493 468 -576 608 -25
42 -27 53 -27 157 0 61 -3 115 -8 119 -4 4 -37 24 -74 44 -36 19 -75 47 -86
62 -38 51 -49 208 -21 327 15 67 38 110 109 201 45 59 73 133 80 217 8 84 13
113 23 113 4 0 38 -15 77 -34z m1079 -237 c56 -17 105 -35 110 -40 11 -10 -30
-59 -49 -59 -19 0 -169 76 -183 93 -14 17 -9 37 10 37 6 0 56 -14 112 -31z
m1631 -188 c9 -30 -23 -151 -54 -206 -16 -28 -49 -73 -73 -102 -23 -28 -51
-63 -61 -77 -11 -16 -37 -31 -70 -41 -78 -23 -130 -56 -152 -97 -30 -57 -14
-62 85 -26 77 27 89 29 129 19 64 -17 101 -46 101 -80 0 -41 -18 -52 -65 -41
-122 29 -255 -11 -255 -76 0 -33 11 -35 66 -15 106 41 191 39 244 -5 22 -19
30 -34 30 -59 0 -53 -26 -65 -142 -65 -104 0 -148 -10 -148 -35 0 -21 69 -51
152 -65 101 -18 103 -22 102 -199 -1 -99 -5 -154 -14 -171 l-13 -24 -23 27
c-21 25 -40 78 -58 157 -3 14 -12 34 -20 45 -13 19 -15 19 -33 2 -15 -13 -37
-17 -90 -17 -70 0 -70 0 -94 38 -40 61 -50 50 -75 -77 -23 -116 -65 -221 -104
-256 -42 -38 -196 -38 -225 1 -26 35 -113 209 -125 250 -12 39 -10 51 25 160
20 65 55 156 78 202 36 75 52 95 166 202 69 65 164 151 211 190 176 149 333
296 388 365 81 100 104 115 117 76z m-2843 -838 c9 -10 27 -40 41 -68 45 -90
456 -498 649 -643 31 -24 87 -58 124 -77 62 -32 68 -33 80 -17 22 28 16 61
-17 102 -23 28 -35 58 -45 112 -8 40 -14 74 -14 76 0 1 8 2 18 2 9 0 64 -46
120 -103 l103 -103 -239 -216 c-200 -181 -243 -215 -263 -211 -48 10 -601 709
-638 806 -6 14 -11 83 -13 154 -3 129 -3 130 25 166 31 41 47 45 69 20z m1495
-61 c6 -4 17 -20 23 -36 25 -67 -25 -146 -92 -146 -51 0 -78 27 -78 79 0 36 4
41 48 69 65 41 80 46 99 34z m-362 -144 c21 -48 29 -82 26 -115 -2 -19 -84
-63 -118 -63 -17 0 -47 11 -67 25 -21 14 -52 31 -70 39 -67 28 -64 33 73 115
110 66 125 66 156 -1z m725 -359 c74 -105 137 -195 138 -200 2 -5 -27 -45 -63
-90 l-68 -80 -92 138 c-109 164 -188 298 -184 311 4 11 121 112 129 112 3 0
66 -86 140 -191z m-156 -249 c119 -171 216 -319 216 -329 0 -22 -127 -168
-246 -282 -123 -119 -66 -112 -979 -117 -418 -2 -825 0 -904 3 l-144 7 6 227
c8 324 46 536 119 673 28 53 87 118 106 118 9 0 238 -269 284 -335 19 -27 38
-65 41 -83 4 -18 17 -48 29 -66 26 -37 147 -138 276 -228 71 -50 87 -57 100
-47 10 7 67 63 127 124 61 61 184 174 275 252 266 227 464 392 472 393 3 0
103 -140 222 -310z"/>
<path d="M1602 2478 c-19 -36 -58 -79 -85 -95 -18 -9 -17 -13 14 -56 27 -39
30 -49 19 -62 -17 -20 -39 -19 -95 5 -64 28 -85 26 -85 -5 0 -22 10 -30 63
-54 40 -18 89 -53 131 -91 36 -35 69 -60 73 -57 3 4 1 30 -4 58 -9 44 -8 58 9
96 17 40 19 57 12 169 -7 135 -19 155 -52 92z"/>
<path d="M693 2327 c-14 -30 6 -69 42 -85 20 -9 25 -17 20 -30 -14 -34 -17
-99 -6 -121 11 -20 78 -61 101 -61 6 0 5 12 -5 30 -20 39 -19 66 5 105 33 53
6 94 -106 160 l-41 24 -10 -22z"/>
</g>
</svg>
