<?xml version="1.0" standalone="no"?>
<!DOCTYPE svg PUBLIC "-//W3C//DTD SVG 20010904//EN"
 "http://www.w3.org/TR/2001/REC-SVG-20010904/DTD/svg10.dtd">
<svg version="1.0" xmlns="http://www.w3.org/2000/svg"
 width="214.000000pt" height="213.000000pt" viewBox="0 0 214.000000 213.000000"
 preserveAspectRatio="xMidYMid meet">
<metadata>
Created by potrace 1.16, written by Peter Selinger 2001-2019
</metadata>

<g transform="translate(0.000000,213.000000) scale(0.100000,-0.100000)"
fill="#000000" stroke="none">
<defs>
  <mask id="hole">
    <rect width="2000" height="2000" fill="white"/>
    <polygon style="fill: black" points="1045.37 1282.53 1396.35 926.96 1610.92 1140 1256.88 1481.78"></polygon>
  </mask>
</defs>
<polygon style="fill: #d10408" points="832.33 1208.2 485.95 858.75 974.87 374.43 1322.78 720.81 1042.3 998.23 832.33 795.91 904.37 726.94 1043.84 860.29 1183.31 723.88 974.87 507.78 780.22 694.76 623.89 858.75 780.22 1013.55 896.7 1146.89"></polygon>
<polygon style="fill: #d10408" points="430.77 307.76 427.71 398.19 243.79 255.65 424.64 119.25 426.18 205.08 1630.84 206.61 1733.53 103.92 2052.32 113.12 1925.11 254.12 2014.01 402.79 1732 405.85 1621.65 306.23"></polygon>
<polygon id="donut" style="fill: #d10408" points="904.37 1282.53 1397.88 792.08 1747.33 1141.53 1259.94 1627.38" mask="url(#hole)"></polygon>
<path d="M1069 1460 l-184 -179 254 -251 c140 -137 255 -250 257 -250 2 0 86
81 186 180 l183 180 -253 250 c-138 137 -254 250 -256 250 -2 0 -87 -81 -187
-180z m491 -485 l-165 -165 -235 235 -235 235 165 165 165 165 235 -235 235
-235 -165 -165z"/>
<path d="M1133 1388 l-108 -108 185 -185 185 -185 115 115 115 115 -178 178
c-98 98 -185 179 -192 179 -8 0 -62 -49 -122 -109z m293 -83 l167 -164 -96
-96 c-53 -52 -99 -95 -102 -95 -3 0 -81 75 -172 166 l-166 165 94 94 c52 52
97 95 101 95 4 0 82 -74 174 -165z"/>
<path d="M645 1040 l-180 -180 250 -250 c138 -137 252 -250 255 -250 3 0 87
81 188 180 l182 180 -104 103 c-58 56 -125 122 -150 146 l-44 44 -114 -111
-113 -111 40 -41 c21 -22 42 -40 45 -40 3 0 35 29 70 65 36 36 68 65 71 65 11
0 119 -108 119 -119 0 -11 -179 -191 -190 -191 -3 0 -79 74 -170 165 l-165
165 138 138 c75 75 137 140 137 144 0 8 -72 78 -80 78 -3 0 -86 -81 -185 -180z
m100 -40 l-140 -140 185 -185 185 -185 115 115 115 115 -80 80 -80 80 -70 -70
-71 -71 -24 26 -24 26 95 94 94 95 130 -130 130 -130 -165 -165 -165 -165
-235 235 -235 235 165 165 165 165 25 -25 25 -25 -140 -140z"/>
<path d="M323 342 c-56 -42 -102 -80 -103 -85 0 -4 48 -43 108 -87 l107 -80 3
50 3 50 595 0 596 0 51 -50 51 -50 168 0 c201 0 201 1 103 100 l-66 66 55 82
54 82 -162 0 -162 0 -50 -50 -49 -50 -592 0 -593 0 0 50 c0 28 -3 50 -7 49 -5
0 -54 -35 -110 -77z m1657 37 c0 -5 -18 -36 -39 -68 l-40 -58 60 -59 c32 -32
59 -62 59 -66 0 -4 -64 -8 -143 -8 l-143 0 -49 50 -49 50 -613 0 -613 0 0 -35
c0 -19 -3 -35 -6 -35 -5 0 -110 77 -137 100 -4 4 26 32 67 63 l75 57 3 -38 3
-37 605 -3 606 -2 49 50 49 50 128 0 c83 0 128 -4 128 -11z"/>
</g>
</svg>
