<?xml version="1.0" standalone="no"?>
<!DOCTYPE svg PUBLIC "-//W3C//DTD SVG 20010904//EN"
 "http://www.w3.org/TR/2001/REC-SVG-20010904/DTD/svg10.dtd">
<svg version="1.0" xmlns="http://www.w3.org/2000/svg"
 width="400.000000pt" height="400.000000pt" viewBox="0 0 285.093 286.012"
 preserveAspectRatio="xMidYMid meet">
<metadata>
Created by potrace 1.16, written by Peter Selinger 2001-2019
</metadata>
<g transform="matrix(0.070711, 0.070711, 0.070711, -0.070711, -140.225159, 142.96167)"
fill="#000000" stroke="none">
<defs>
	<mask id="hole">
		<rect width="4000" height="4000" fill="white"/>
		<polygon style="fill: black" points="1191.17 2806.34 1166.3 1120.3 2872.24 1095.43 2887.16 2821.26"></polygon>
	</mask>
</defs>
<polygon style="fill: #dc5828" points="52.22 2005.6 2001.86 41.03 3966.43 2020.52 2011.81 3935.34" mask="url(#hole)"></polygon>
<path d="M 995 3004 C 450 2456 4 2002 2 1995 C 0 1989 292 1694 650 1340 C 1160 836 2000 0 2006 0 C 2017 0 3994 1988 3998 2004 C 4000 2016 2015 3993 1996 3998 C 1990 3999 1540 3552 995 3004 Z M 2950 2945 L 3895 2000 L 2947 1052 L 2000 105 L 1053 1052 L 105 2000 L 1050 2945 C 1570 3465 1997 3890 2000 3890 C 2003 3890 2430 3465 2950 2945 Z"></path>
<path d="M2420 2850 c-20 -17 -39 -20 -144 -21 -201 -3 -270 2 -279 17 -11 19
-27 18 -42 -2 -10 -14 -55 -17 -369 -21 -283 -4 -363 -3 -382 8 -19 10 -27 10
-36 1 -7 -7 -22 -12 -34 -12 -12 0 -25 -7 -28 -16 -8 -21 11 -44 35 -44 15 0
19 -8 21 -42 1 -24 3 -61 4 -83 4 -67 -15 -1252 -22 -1372 -4 -80 -10 -113
-18 -113 -17 0 -48 -35 -39 -43 3 -4 17 -7 29 -7 21 0 23 -4 21 -37 -2 -32 1
-38 18 -38 15 0 21 8 25 35 l5 35 170 0 170 0 0 -25 c0 -30 13 -52 27 -48 6 2
16 19 22 38 9 29 15 34 36 31 14 -2 95 -4 180 -5 l155 -1 0 -32 c0 -37 8 -48
30 -40 9 4 15 19 15 41 l0 34 78 0 c42 1 137 -2 210 -5 l132 -5 0 -34 c0 -27
4 -34 20 -34 13 0 20 7 20 19 0 50 2 51 170 51 185 0 216 -5 224 -33 5 -19 6
-19 40 9 38 32 44 51 21 68 -22 17 -24 120 -14 696 5 283 10 615 12 737 1 167
5 224 15 228 15 6 16 47 0 63 -14 14 -55 16 -60 3 -2 -6 -84 -11 -186 -13
-166 -3 -184 -1 -193 15 -13 22 -31 22 -59 -3z m253 -70 l199 0 -7 -297 c-3
-164 -7 -316 -9 -338 -2 -22 -4 -212 -6 -422 -1 -211 -4 -383 -7 -383 -14 0
-103 86 -113 110 -16 38 -28 42 -137 46 -78 3 -93 2 -93 -11 0 -21 38 -34 113
-39 56 -4 64 -7 78 -33 8 -15 30 -37 47 -48 21 -13 35 -33 42 -58 7 -25 19
-41 36 -47 22 -9 24 -15 24 -75 l0 -65 -185 5 c-102 2 -190 7 -196 10 -11 8
-5 1407 7 1558 6 73 6 77 -14 77 -12 0 -23 -4 -26 -9 -3 -5 -6 -239 -6 -521
l-1 -513 -39 -75 c-42 -78 -51 -135 -25 -145 18 -7 27 7 34 52 3 18 11 34 16
35 11 1 18 -361 9 -426 l-5 -36 -92 -4 c-119 -5 -133 0 -135 48 -2 44 12 64
44 64 16 0 39 16 66 47 24 25 53 56 66 68 28 28 28 34 -4 76 -14 19 -37 59
-51 89 -27 60 -59 100 -80 100 -17 0 -16 5 3 36 21 31 5 56 -24 38 -14 -9 -53
-73 -65 -107 -5 -16 -47 11 -47 31 0 10 -7 28 -16 40 -13 19 -19 21 -30 11 -8
-7 -13 -18 -10 -26 6 -15 -23 -83 -36 -83 -4 0 -8 42 -8 94 0 85 2 94 20 99
11 3 20 13 20 24 0 10 -9 24 -20 31 -24 14 -26 45 -5 62 18 15 20 61 4 77 -6
6 -8 16 -5 22 9 15 61 -12 71 -36 4 -10 8 -71 10 -136 4 -118 15 -161 39 -137
13 13 9 351 -5 364 -5 6 -18 5 -33 -3 -17 -10 -32 -11 -53 -4 l-28 10 0 189 0
189 28 13 c15 7 40 12 55 10 l27 -4 -27 -12 c-29 -12 -37 -36 -15 -46 8 -4 9
-8 1 -11 -6 -3 -20 -12 -30 -19 -15 -12 -16 -16 -5 -29 9 -12 24 -14 62 -10
42 5 53 3 73 -16 35 -33 57 -24 80 34 30 80 39 95 53 95 17 0 16 -5 -3 -57
-19 -49 -7 -76 30 -71 17 2 23 14 31 63 6 33 14 66 18 73 11 16 2 29 -34 48
-23 11 -66 15 -185 16 -85 0 -156 3 -157 7 -2 3 0 60 3 126 7 119 1 160 -23
152 -7 -2 -13 -29 -14 -68 -2 -70 -21 -924 -22 -1028 -1 -61 -2 -63 -19 -48
-26 24 -42 21 -42 -8 0 -16 11 -32 30 -47 l30 -22 0 -203 0 -203 -144 0 c-164
0 -156 -5 -156 95 0 56 12 75 46 75 12 0 54 27 95 60 45 38 78 59 87 55 26
-10 30 13 11 73 -9 31 -23 80 -32 107 -15 51 -40 67 -45 30 -1 -11 6 -50 16
-87 l19 -67 -63 -51 c-35 -28 -68 -49 -74 -45 -16 10 0 145 22 186 17 30 18
41 9 75 -6 21 -14 77 -17 124 -6 73 -11 89 -35 117 -27 31 -31 40 -43 96 -4
18 -13 27 -26 27 -10 0 -22 5 -25 11 -6 8 -7 610 -2 688 2 25 -26 51 -40 37
-4 -4 -9 -60 -10 -124 -1 -64 -4 -256 -7 -427 l-6 -310 -22 3 c-13 1 -33 -10
-53 -30 -17 -18 -57 -48 -89 -67 -31 -19 -61 -42 -66 -51 -5 -10 -10 -46 -10
-81 -4 -227 -4 -233 18 -276 12 -23 22 -51 22 -61 0 -11 14 -50 32 -87 30 -66
31 -68 12 -82 -15 -11 -38 -12 -99 -7 -44 4 -83 8 -88 11 -4 2 -5 28 -2 56 6
69 14 442 20 998 3 250 8 478 11 507 l5 52 362 1 c528 1 837 6 845 13 3 4 16
5 27 2 11 -3 109 -6 218 -6z m-1030 -901 c26 -37 37 -99 18 -99 -5 0 -23 16
-40 35 -22 25 -31 46 -31 70 0 46 18 44 53 -6z m-53 -96 c23 -27 55 -62 71
-79 29 -30 38 -54 19 -54 -5 0 -20 16 -34 36 -59 88 -118 95 -225 29 -82 -50
-81 -50 -81 -32 0 14 96 97 112 97 5 0 26 11 46 25 20 14 40 25 43 25 4 0 25
-21 49 -47z m16 -114 c15 -22 40 -49 56 -60 29 -21 37 -39 17 -39 -6 0 -38 20
-71 45 -33 25 -70 45 -81 45 -18 0 -106 -51 -164 -95 -8 -6 -16 -6 -24 2 -14
14 26 51 108 101 62 37 101 52 120 45 6 -3 24 -22 39 -44z m-30 -80 c19 -11
34 -25 34 -30 0 -6 12 -21 27 -35 39 -36 19 -42 -22 -5 -21 18 -47 31 -63 31
-15 0 -65 -23 -111 -50 -81 -48 -112 -54 -98 -17 4 11 183 127 196 127 2 0 19
-9 37 -21z m669 -50 c15 -38 25 -73 22 -76 -11 -11 -226 -8 -238 4 -8 8 -8 21
1 50 17 51 26 59 39 34 10 -17 21 -21 66 -21 l55 0 0 33 c0 33 6 47 20 47 4 0
19 -32 35 -71z m-659 -57 c24 -20 64 -87 64 -107 0 -29 -20 -24 -59 15 -22 22
-47 40 -57 40 -9 0 -35 -16 -58 -36 -22 -19 -47 -40 -54 -46 -10 -7 -11 -13
-3 -21 8 -8 20 -8 44 2 70 29 72 27 75 -82 3 -109 -2 -117 -61 -100 -26 7 -35
17 -47 53 -8 25 -20 54 -26 65 -6 11 -17 44 -25 73 -13 53 -13 54 11 73 23 17
159 88 170 88 3 0 14 -7 26 -17z m489 -128 c19 -12 46 -16 105 -15 63 1 80 -2
80 -13 0 -20 -62 -46 -112 -46 -64 0 -87 9 -104 42 -9 17 -22 27 -31 26 -9 -2
-18 3 -20 10 -7 18 53 15 82 -4z m20 -114 c47 0 55 -9 55 -61 l0 -49 -75 0
c-89 0 -99 10 -90 92 10 83 11 84 50 49 20 -17 46 -31 60 -31z m-491 34 c3 -9
6 -42 6 -75 0 -44 -4 -59 -14 -59 -18 0 -22 18 -18 91 4 58 14 75 26 43z"/>
<path d="M1869 2380 c-28 -16 -83 -111 -109 -189 -21 -62 -29 -75 -49 -78 -33
-5 -53 -23 -42 -37 4 -6 12 -29 16 -51 4 -22 20 -70 35 -107 16 -37 34 -95 41
-128 12 -63 52 -121 70 -103 13 13 14 95 1 119 -17 33 -52 193 -52 242 0 48 9
85 42 167 11 28 23 61 25 74 3 13 19 31 35 40 18 10 27 23 26 35 -4 23 -17 29
-39 16z"/>
<path d="M2507 2304 c-3 -4 2 -23 13 -44 28 -55 45 -164 32 -209 -19 -62 -42
-184 -42 -218 0 -28 4 -33 25 -33 19 0 26 7 34 38 6 20 11 54 11 74 0 28 12
56 51 113 58 87 60 110 9 111 -34 0 -35 1 -52 68 -22 85 -55 126 -81 100z"/>
<path d="M2104 2229 c-9 -16 6 -26 53 -33 47 -7 61 4 37 28 -18 18 -79 22 -90
5z"/>
<path d="M2054 2135 c-9 -24 6 -35 44 -35 20 1 59 0 87 -2 42 -3 50 0 53 16 6
27 -10 33 -99 34 -60 1 -81 -3 -85 -13z"/>
<path d="M2327 2113 c-4 -3 -7 -14 -7 -23 0 -26 -46 -62 -87 -69 -36 -6 -38
-8 -41 -47 -2 -27 2 -45 12 -53 20 -17 36 -6 36 24 0 19 7 26 32 33 19 5 48
27 75 59 40 47 42 52 28 67 -17 17 -37 21 -48 9z"/>
<path d="M1835 2060 c-19 -21 -14 -50 9 -50 13 0 43 14 74 33 10 7 10 12 1 23
-17 20 -63 17 -84 -6z"/>
<path d="M2320 1966 c-5 -15 -10 -32 -10 -37 0 -5 -6 -9 -14 -9 -19 0 -28 -26
-13 -38 23 -18 58 -24 72 -12 22 18 19 83 -5 105 -19 17 -20 17 -30 -9z"/>
<path d="M2255 1810 c-3 -5 2 -21 11 -35 18 -27 59 -34 94 -15 29 16 13 40
-25 40 -19 0 -37 5 -40 10 -8 13 -32 13 -40 0z"/>
<path d="M2492 1753 c-5 -10 -12 -64 -15 -121 -4 -85 -3 -104 9 -109 8 -3 17
-3 20 0 3 3 7 57 10 120 5 112 -4 150 -24 110z"/>
</g>
</svg>
