<?xml version="1.0" standalone="no"?>
<!DOCTYPE svg PUBLIC "-//W3C//DTD SVG 20010904//EN"
 "http://www.w3.org/TR/2001/REC-SVG-20010904/DTD/svg10.dtd">
<svg version="1.0" xmlns="http://www.w3.org/2000/svg"
 width="243.000000pt" height="208.000000pt" viewBox="0 0 243.000000 208.000000"
 preserveAspectRatio="xMidYMid meet">
<metadata>
Created by potrace 1.16, written by Peter Selinger 2001-2019
</metadata>
<g transform="translate(0.000000,208.000000) scale(0.100000,-0.100000)"
fill="#000000" stroke="none">
<defs>
	<mask id="hole">
		<rect width="3000" height="2000"  fill="white"/>
		<polygon style="fill: black" points="415.09 655.62 523.72 521.13 875.45 428.03 1219.42 409.92 1653.91 508.2 2085.82 743.55 1840.12 849.59 1447.01 901.31 1144.42 890.97 681.48 805.62"></polygon>
	</mask>
</defs>
<polygon style="fill: #ffed00" points="1053.9 1511.67 565.1 1320.29 146.12 1007.35 34.91 795.28 96.98 482.34 280.61 748.72 650.44 924.59 1144.42 1038.38 1113.39 1190.97 596.13 1079.76 575.44 1178.04 808.21 1340.98 1097.87 1449.6"></polygon>
<polygon style="fill: #ffed00" points="2178.92 1147.01 2189.27 1053.9 1734.09 1110.8 1703.05 1015.11 2062.54 919.42 2391 665.96 2385.83 1004.76 2253.93 1196.15 1871.16 1454.77 1659.09 1516.84 1690.12 1387.53 1912.54 1315.11"></polygon>
<polygon style="fill: #ffed00" points="117.67 471.99 190.09 306.47 386.65 179.75 759.07 63.36 1353.91 60.78 1889.26 171.99 2308.24 404.75 2378.07 658.2 2189.27 854.76 1744.43 1009.93 1118.56 1028.04 676.31 947.86 288.37 772 161.64 619.41" mask="url(#hole)"></polygon>
<path d="M1406 2028 c-23 -79 -40 -238 -27 -251 15 -15 27 19 56 157 18 88 22
123 14 133 -19 23 -28 15 -43 -39z"/>
<path d="M1066 2041 c-11 -18 92 -271 110 -271 21 0 -47 247 -74 268 -19 14
-29 15 -36 3z"/>
<path d="M1733 1908 c-39 -42 -123 -174 -116 -182 14 -14 22 -6 146 152 49 64
25 87 -30 30z"/>
<path d="M810 1842 c0 -23 195 -146 217 -138 9 4 14 8 12 10 -38 35 -143 112
-171 127 -46 24 -58 24 -58 1z"/>
<path d="M1945 1741 c-156 -88 -174 -101 -140 -101 26 0 169 78 195 105 32 34
8 32 -55 -4z"/>
<path d="M1092 1627 c-6 -7 -13 -24 -17 -39 -10 -38 -17 -43 -150 -89 -286
-98 -611 -284 -762 -436 -54 -54 -82 -94 -114 -159 -40 -79 -43 -92 -42 -157
2 -94 42 -245 88 -337 59 -117 126 -179 269 -250 223 -110 426 -152 731 -152
275 -1 482 33 735 118 211 72 433 199 514 295 71 84 97 228 79 444 -10 114
-14 134 -46 199 -42 84 -125 173 -232 248 -108 77 -324 195 -380 209 -70 17
-118 43 -134 73 -17 31 -37 33 -323 40 -154 4 -209 2 -216 -7z m130 -66 c23
-41 65 -68 81 -52 9 9 3 20 -28 47 l-40 35 64 -4 c45 -2 67 -8 76 -20 15 -21
34 -22 41 -2 5 11 22 15 64 15 63 0 83 -12 50 -30 -11 -6 -20 -18 -20 -26 0
-11 -5 -14 -17 -9 -35 14 -108 16 -133 3 -13 -7 -35 -29 -48 -48 -15 -23 -36
-39 -60 -45 -55 -16 -48 -39 13 -45 40 -4 52 -10 62 -30 7 -15 29 -32 55 -41
39 -15 44 -21 51 -60 11 -54 21 -66 42 -49 10 8 14 26 13 54 -3 37 -1 41 22
44 17 2 41 -9 70 -31 52 -39 77 -50 85 -37 7 11 -20 40 -75 82 -31 23 -33 28
-20 41 8 8 29 18 47 22 l32 6 20 -66 c12 -37 21 -84 21 -105 l0 -38 -152 -7
c-84 -3 -189 -3 -233 2 l-80 8 -17 80 c-29 137 -48 308 -36 322 16 20 32 15
50 -16z m400 -75 c19 -63 17 -76 -12 -76 -17 0 -70 66 -70 87 0 13 44 53 54
50 6 -2 19 -30 28 -61z m-137 -10 c92 -39 62 -136 -42 -136 -38 0 -50 5 -79
34 -19 19 -34 39 -34 46 0 6 13 25 29 41 33 33 71 37 126 15z m319 -32 c102
-43 212 -110 341 -206 141 -107 191 -183 215 -333 11 -67 4 -155 -13 -155 -5
0 -38 27 -73 59 -109 103 -235 164 -422 206 -116 27 -132 35 -112 61 17 20 49
17 279 -28 161 -31 164 -31 178 -12 10 13 13 35 10 67 -6 64 -35 94 -160 160
-55 28 -131 69 -170 89 -39 21 -95 43 -125 49 -54 13 -72 31 -72 75 0 19 15
15 124 -32z m-772 11 c0 -6 -47 -26 -104 -46 -157 -54 -271 -116 -360 -197
-48 -44 -53 -95 -12 -133 33 -31 77 -30 285 10 84 16 177 31 204 33 50 3 50 3
53 -29 3 -31 2 -32 -45 -38 -26 -4 -102 -17 -168 -30 -384 -76 -652 -212 -751
-380 -14 -25 -28 -45 -30 -45 -13 0 -23 59 -25 135 -1 77 1 91 29 148 57 115
158 208 377 347 112 72 268 145 425 201 106 38 121 41 122 24z m32 -127 c8
-40 18 -89 21 -109 l7 -36 -59 -8 c-32 -4 -101 -16 -153 -26 -184 -38 -273
-49 -287 -38 -42 36 16 101 150 170 93 48 265 117 293 119 7 0 19 -33 28 -72z
m778 -18 c165 -71 328 -175 328 -210 0 -16 -7 -20 -37 -20 -21 0 -54 5 -73 10
-20 5 -94 19 -164 29 -71 11 -131 22 -134 25 -4 5 -51 192 -52 209 0 11 27 2
132 -43z m-225 -325 c232 -31 365 -67 482 -131 155 -85 231 -172 231 -263 0
-57 -13 -85 -67 -143 -129 -137 -347 -241 -638 -303 -194 -41 -288 -50 -535
-49 -193 1 -256 5 -350 22 -210 38 -373 100 -488 186 -70 52 -92 90 -92 158 1
149 54 215 273 336 167 93 409 165 637 191 129 15 420 12 547 -4z"/>
<path d="M1292 1277 c-30 -30 -43 -67 -24 -67 10 0 92 83 92 93 0 19 -39 4
-68 -26z"/>
<path d="M1210 919 c-309 -25 -531 -78 -729 -174 -196 -96 -264 -171 -246
-276 10 -56 104 -148 199 -194 115 -55 140 -44 111 51 -16 53 -20 131 -7 152
6 9 25 7 81 -13 227 -77 476 -103 686 -71 192 30 455 105 567 162 15 8 32 14
38 14 17 0 50 -87 62 -167 7 -46 16 -73 24 -73 21 0 190 118 220 153 113 134
48 228 -238 340 -236 93 -458 121 -768 96z m300 -49 c151 -12 272 -32 359 -61
72 -23 151 -57 151 -63 0 -11 -127 -90 -218 -136 -318 -158 -708 -200 -1062
-114 -129 31 -217 71 -258 118 -40 46 -36 54 57 101 159 79 444 146 676 158
132 7 165 7 295 -3z"/>
<path d="M740 1603 c0 -16 35 -23 143 -30 63 -4 97 -2 97 4 0 14 -44 22 -152
30 -58 4 -88 2 -88 -4z"/>
<path d="M1921 1551 c-60 -8 -67 -31 -9 -30 75 1 141 14 146 27 4 13 -53 14
-137 3z"/>
</g>
</svg>
