<?xml version="1.0" standalone="no"?>
<!DOCTYPE svg PUBLIC "-//W3C//DTD SVG 20010904//EN"
 "http://www.w3.org/TR/2001/REC-SVG-20010904/DTD/svg10.dtd">
<svg version="1.0" xmlns="http://www.w3.org/2000/svg"
 width="317.000000pt" height="243.000000pt" viewBox="0 0 317.000000 243.000000"
 preserveAspectRatio="xMidYMid meet">
<metadata>
Created by potrace 1.16, written by Peter Selinger 2001-2019
</metadata>
<g transform="translate(0.000000,243.000000) scale(0.100000,-0.100000)"
fill="#000000" stroke="none">
<path d="M1565 2320 c-41 -16 -50 -37 -32 -76 10 -19 17 -46 17 -59 0 -25 -1
-25 -90 -25 -90 0 -91 0 -125 35 -60 59 -150 57 -210 -5 -36 -38 -46 -119 -21
-169 42 -81 178 -96 235 -27 10 12 33 16 97 16 98 0 97 1 92 -115 -3 -69 -3
-70 -33 -75 -28 -5 -30 -9 -35 -55 -5 -47 -7 -51 -66 -92 -68 -47 -96 -92 -74
-118 7 -8 18 -15 26 -15 22 0 26 -20 10 -46 l-17 -24 -252 2 -252 3 -6 90 c-8
109 -29 165 -80 209 -68 58 -184 74 -258 36 -84 -42 -164 -174 -209 -339 -22
-83 -25 -117 -26 -256 -1 -139 2 -171 22 -240 66 -227 195 -314 345 -232 55
31 93 92 142 235 3 9 61 12 241 12 l237 0 33 -36 34 -35 236 3 c231 3 236 3
254 25 17 22 25 23 192 24 224 1 274 -12 337 -88 43 -52 50 -100 57 -416 l6
-277 213 0 214 0 6 54 c4 30 4 64 0 76 -4 12 -8 162 -10 333 -3 348 -13 433
-57 521 -41 82 -127 170 -202 206 -116 57 -311 90 -529 90 -119 0 -128 3 -141
45 -4 15 0 23 17 30 17 8 22 18 22 44 0 30 -7 40 -45 68 -96 69 -95 68 -95
114 0 41 -2 44 -30 49 l-30 5 -3 93 -3 92 109 0 c87 0 112 -3 123 -16 36 -43
124 -57 180 -29 64 34 91 140 52 206 -20 33 -86 69 -127 69 -35 0 -102 -35
-116 -60 -10 -18 -21 -20 -119 -20 -59 0 -110 2 -113 6 -3 3 -1 22 4 42 22 86
22 89 -10 106 -33 17 -103 20 -137 6z m-278 -172 c46 -43 21 -122 -44 -134
-27 -5 -37 -1 -63 24 -37 37 -39 74 -5 107 31 32 80 33 112 3z m828 -3 c14
-13 25 -36 25 -50 0 -30 -49 -85 -75 -85 -24 0 -72 27 -79 45 -32 86 66 154
129 90z m-443 -2 c28 -25 24 -77 -8 -102 -35 -27 -59 -26 -89 4 -30 30 -31 54
-4 89 24 31 72 35 101 9z m-984 -419 c15 -11 40 -45 55 -75 23 -44 27 -64 25
-114 l-3 -60 -62 3 c-72 4 -79 -2 -118 -114 -34 -96 -40 -191 -20 -288 14 -69
15 -81 2 -93 -25 -26 -54 0 -67 59 -34 155 -19 290 47 418 35 68 35 68 17 94
-11 14 -23 24 -29 22 -18 -5 -75 -110 -96 -176 -40 -128 -35 -322 11 -427 19
-42 68 -83 102 -83 9 0 29 19 45 42 37 54 58 67 78 48 13 -14 12 -21 -11 -70
-32 -70 -68 -108 -116 -120 -78 -22 -152 42 -190 163 -21 65 -23 92 -23 262 1
181 2 194 29 275 16 47 37 102 48 123 23 46 85 116 113 128 34 15 132 5 163
-17z m1014 -3 c33 -14 100 -79 93 -91 -8 -12 -332 -14 -339 -1 -3 5 13 29 35
55 l41 46 73 0 c41 0 84 -4 97 -9z m69 -182 c5 -8 8 -23 7 -34 -3 -19 -11 -20
-162 -20 -175 0 -187 5 -141 51 l27 27 130 -5 c94 -4 133 -10 139 -19z m-443
-144 c17 -3 32 -12 32 -19 0 -8 8 -24 19 -37 l19 -23 21 42 c21 42 21 42 79
42 31 0 114 -3 185 -7 l127 -6 0 -34 c0 -44 22 -43 65 4 l34 37 163 0 c260 -1
414 -43 519 -140 57 -55 94 -112 115 -182 15 -46 43 -513 44 -705 0 -85 -1
-88 -26 -97 -31 -12 -214 -13 -232 -2 -9 6 -15 74 -22 258 -10 260 -19 318
-61 396 -55 99 -156 128 -439 128 l-181 0 -17 30 c-22 39 -58 38 -55 0 2 -14
4 -38 5 -55 l3 -30 -70 -6 c-103 -9 -288 -10 -302 -1 -9 6 -4 20 17 52 34 51
36 62 15 80 -13 11 -20 9 -43 -13 -15 -14 -40 -31 -55 -36 -31 -12 -372 -13
-542 -2 l-100 6 1 107 c2 129 23 202 60 215 26 9 568 7 622 -2z"/>
<path d="M1383 854 c-3 -8 -1 -26 6 -40 l11 -25 147 3 c145 3 148 3 160 28 22
45 6 50 -164 50 -130 0 -155 -2 -160 -16z"/>
</g>
</svg>
