<?xml version="1.0" encoding="iso-8859-1"?>
<!-- Generator: Adobe Illustrator 17.1.0, SVG Export Plug-In . SVG Version: 6.00 Build 0)  -->
<!DOCTYPE svg PUBLIC "-//W3C//DTD SVG 1.1//EN" "http://www.w3.org/Graphics/SVG/1.1/DTD/svg11.dtd">
<svg version="1.1" id="Capa_1" xmlns="http://www.w3.org/2000/svg" xmlns:xlink="http://www.w3.org/1999/xlink" x="0px" y="0px"
	 viewBox="0 0 224.106 224.106" style="enable-background:new 0 0 224.106 224.106;" xml:space="preserve">
<path style="fill:#000001;" d="M160.352,160.976c0,5.204-4.233,9.438-9.437,9.438c-5.204,0-9.438-4.233-9.438-9.438
	s4.233-9.438,9.438-9.438C156.119,151.539,160.352,155.772,160.352,160.976z M72.946,109.571c-5.204,0-9.437,4.233-9.437,9.438
	s4.233,9.438,9.437,9.438c5.204,0,9.437-4.233,9.437-9.438S78.149,109.571,72.946,109.571z M223.708,107.369
	c0,4.143-3.358,7.5-7.5,7.5c-0.006,0-0.013,0-0.02,0h-13.329v101.737c0,4.143-3.358,7.5-7.5,7.5H28.727c-4.142,0-7.5-3.357-7.5-7.5
	V114.869H7.898c-3.062,0-5.817-1.861-6.959-4.703c-1.142-2.841-0.442-6.091,1.768-8.21L106.852,2.087
	c2.901-2.783,7.48-2.783,10.382,0l103.825,99.561C222.68,103.024,223.708,105.077,223.708,107.369z M72.946,143.446
	c13.475,0,24.437-10.963,24.437-24.438S86.42,94.571,72.946,94.571c-13.475,0-24.437,10.963-24.437,24.438
	S59.471,143.446,72.946,143.446z M88.453,182.481l58.524-76.219c2.522-3.285,1.904-7.993-1.381-10.516
	c-3.286-2.522-7.993-1.905-10.517,1.381l-58.524,76.219c-2.522,3.285-1.904,7.993,1.381,10.516c1.362,1.046,2.968,1.552,4.563,1.552
	C84.749,185.414,86.976,184.405,88.453,182.481z M175.352,160.976c0-13.475-10.962-24.438-24.437-24.438
	c-13.475,0-24.438,10.963-24.438,24.438s10.962,24.438,24.438,24.438C164.39,185.414,175.352,174.451,175.352,160.976z"/>
</svg>
